<svg xmlns="http://www.w3.org/2000/svg" viewBox="0 0 512 512"><path d="M256 0C114.8 0 0 114.8 0 256s114.8 256 256 256 256-114.8 256-256S397.2 0 256 0z" fill="#707070"/><path d="M277.3 384c0 11.8-9.6 21.3-21.3 21.3s-21.3-9.6-21.3-21.3 9.6-21.3 21.3-21.3 21.3 9.5 21.3 21.3z" fill="#eceff1"/><path d="M289.8 269.7c-7.6 3.5-12.4 11.1-12.4 19.4v9.6c0 11.8-9.5 21.3-21.3 21.3s-21.3-9.6-21.3-21.3v-9.6c0-24.9 14.6-47.7 37.2-58.2 21.7-10 37.4-36.6 37.4-49.6 0-29.4-23.9-53.3-53.3-53.3s-53.3 23.9-53.3 53.3c0 11.8-9.5 21.3-21.3 21.3s-21.3-9.6-21.3-21.3c0-52.9 43.1-96 96-96s96 43.1 96 96c-.2 28.9-25.2 71.2-62.4 88.4z" fill="#fafafa"/></svg>